# xmcd
#
# Track frame offsets:
#	150
#	25882
#	46172
#	64353
#	82090
#	110861
#	132685
#	153668
#	179134
#	196340
#
# Disc length: 3023 seconds
#
# Revision: 0
# Processed by: cddbd v1.5.2PL0 Copyright (c) Steve Scherf et al.
# Submitted via: EasyCDDAExtractor 15.3.0.1
#
DISCID=9b0bcd0a
DTITLE=Various Artist - HSD - Noi Dau Ngot Ngao
DYEAR=2000
DGENRE=
TTITLE0=Phuong Thanh - Duong Xua
TTITLE1=Thanh Lam - Roi Anh Lai Den
TTITLE2=Huong Lan - Noi Dau Ngot Ngao
TTITLE3=Bang Kieu - Van Hat Loi Tinh Yeu
TTITLE4=Hong Nhung - Bay Gio Bien Mua Dong
TTITLE5=Tran Thu Ha - Loi Reu
TTITLE6=Quang Linh - Co Nhung Chieu Rat La
TTITLE7=Thuy Dung - Rung Thu Quen Loi
TTITLE8=Ngoc Anh - Va Cung Nhu Yeu
TTITLE9=Nhat Hao - Em Oi! La Thu Mua
EXTD=
EXTT0=
EXTT1=
EXTT2=
EXTT3=
EXTT4=
EXTT5=
EXTT6=
EXTT7=
EXTT8=
EXTT9=
PLAYORDER=
